<svg width="25" height="25" viewBox="0 0 25 25" fill="none" xmlns="http://www.w3.org/2000/svg">
<g clip-path="url(#clip0_46_92)">
<path d="M20.0871 10.3104C20.368 10.3104 20.5957 10.0827 20.5957 9.80181V8.17036C20.5957 7.88946 20.368 7.66177 20.0871 7.66177L19.3632 7.66618L16.9879 10.3104H20.0871Z" fill="#666666"/>
<path d="M4.84226 10.3102H7.96578L5.54933 7.66168H4.84226C4.56137 7.66168 4.33368 7.88937 4.33368 8.17027V9.80159C4.33368 10.0825 4.56137 10.3102 4.84226 10.3102Z" fill="#666666"/>
<path d="M12.7565 12.933L17.4697 7.66177H7.46005L12.2507 12.935C12.3865 13.0845 12.6218 13.0836 12.7565 12.933Z" fill="#666666"/>
<path d="M14.0833 20.351H13.2077V14.4323C12.9977 14.5536 12.7577 14.6198 12.5101 14.6208C12.5082 14.6208 12.5064 14.6208 12.5045 14.6208C12.2551 14.6208 12.0131 14.5545 11.8014 14.4323V20.351H10.8461C10.4578 20.351 10.1429 20.6658 10.1429 21.0541C10.1429 21.4425 10.4578 21.7573 10.8461 21.7573H14.0833C14.4717 21.7573 14.7865 21.4425 14.7865 21.0541C14.7865 20.6658 14.4716 20.351 14.0833 20.351Z" fill="#666666"/>
<path d="M6.39551 12.2667H1.87217V3.93151C1.87217 3.54317 1.55734 3.22833 1.169 3.22833C0.780656 3.22833 0.46582 3.54317 0.46582 3.93151V21.1104C0.46582 21.4988 0.780656 21.8136 1.169 21.8136C1.55734 21.8136 1.87217 21.4988 1.87217 21.1104V15.8581H6.98487V21.1104C6.98487 21.4988 7.2997 21.8136 7.68805 21.8136C8.07639 21.8136 8.39122 21.4988 8.39122 21.1104V14.2624C8.39122 13.1619 7.49594 12.2667 6.39551 12.2667Z" fill="#666666"/>
<path d="M23.7624 3.22833C23.3741 3.22833 23.0592 3.54317 23.0592 3.93151V12.2667H18.6407C17.5402 12.2667 16.645 13.162 16.645 14.2624V21.1104C16.645 21.4988 16.9598 21.8136 17.3482 21.8136C17.7365 21.8136 18.0513 21.4988 18.0513 21.1104V15.8569H23.0593V21.1104C23.0593 21.4988 23.3741 21.8136 23.7625 21.8136C24.1508 21.8136 24.4656 21.4988 24.4656 21.1104V3.93151C24.4656 3.54317 24.1508 3.22833 23.7624 3.22833Z" fill="#666666"/>
</g>
<defs>
<clipPath id="clip0_46_92">
<rect width="24" height="24" fill="white" transform="translate(0.46582 0.520996)"/>
</clipPath>
</defs>
</svg>
